<?xml version="1.0" encoding="UTF-8" standalone="no"?>
<!DOCTYPE svg PUBLIC "-//W3C//DTD SVG 20010904//EN"
              "http://www.w3.org/TR/2001/REC-SVG-20010904/DTD/svg10.dtd">

<svg xmlns="http://www.w3.org/2000/svg"
     width="5.68889in" height="5.68889in"
     viewBox="0 0 512 512">
  <path id="Selection"
        fill="yellow" stroke="yellow" stroke-width="1"
        d="M 233.00,0.21
           C 233.00,0.21 271.00,0.21 271.00,0.21
             298.00,0.04 334.24,10.04 359.00,20.72
             386.09,32.40 413.13,50.14 434.00,71.00
             434.00,71.00 447.83,85.00 447.83,85.00
             468.70,108.11 486.23,137.76 496.95,167.00
             504.46,187.49 511.97,219.25 512.00,241.00
             512.00,241.00 512.00,273.00 512.00,273.00
             511.81,288.89 506.82,312.58 502.42,328.00
             484.65,390.30 442.05,445.03 386.00,477.58
             356.13,494.92 324.24,505.83 290.00,510.28
             290.00,510.28 271.00,512.00 271.00,512.00
             271.00,512.00 239.00,512.00 239.00,512.00
             219.85,511.77 191.28,505.10 173.00,499.00
             149.08,491.02 126.51,479.23 106.00,464.57
             52.27,426.17 15.13,366.90 3.42,302.00
             -0.51,280.18 -0.25,260.99 0.00,239.00
             0.25,217.99 7.79,186.80 15.05,167.00
             40.79,96.81 96.19,41.76 166.00,15.42
             181.81,9.46 200.26,4.66 217.00,2.28
             217.00,2.28 233.00,0.21 233.00,0.21 Z
           M 192.00,168.57
           C 175.47,169.56 163.47,185.19 170.36,201.00
             172.79,206.57 178.70,211.70 183.00,216.00
             183.00,216.00 206.00,239.00 206.00,239.00
             206.00,239.00 216.98,250.00 216.98,250.00
             218.44,251.56 220.69,253.63 220.38,256.00
             219.99,258.94 209.58,268.42 207.00,271.00
             207.00,271.00 182.00,296.00 182.00,296.00
             175.60,302.41 169.28,308.36 169.02,318.00
             168.64,331.65 176.63,342.68 191.00,342.98
             194.57,343.06 197.66,342.91 201.00,341.47
             206.60,339.04 211.70,333.30 216.00,329.00
             216.00,329.00 239.00,306.00 239.00,306.00
             239.00,306.00 251.00,294.04 251.00,294.04
             252.67,292.51 254.51,290.54 257.00,291.20
             259.49,291.85 267.71,300.71 270.00,303.00
             270.00,303.00 281.00,314.00 281.00,314.00
             286.42,319.42 303.75,337.73 309.00,340.59
             316.59,344.71 327.24,343.75 333.99,338.47
             342.67,331.67 345.99,318.94 340.59,309.00
             338.22,304.65 331.69,298.69 328.00,295.00
             328.00,295.00 305.00,272.00 305.00,272.00
             302.30,269.30 291.04,259.21 291.04,256.00
             291.04,253.58 294.40,250.63 296.00,249.00
             296.00,249.00 310.00,235.00 310.00,235.00
             310.00,235.00 331.00,214.00 331.00,214.00
             336.14,208.86 341.35,204.55 342.67,197.00
             345.26,182.27 335.36,168.57 320.00,168.57
             313.00,168.57 307.16,171.66 302.00,176.18
             302.00,176.18 268.00,210.00 268.00,210.00
             265.54,212.46 258.41,220.83 255.00,220.38
             252.06,219.99 242.58,209.58 240.00,207.00
             240.00,207.00 216.00,183.00 216.00,183.00
             207.76,174.76 204.26,169.31 192.00,168.57 Z" />
</svg>
