<?xml version="1.0" encoding="UTF-8" standalone="no"?>
<!DOCTYPE svg PUBLIC "-//W3C//DTD SVG 20010904//EN"
              "http://www.w3.org/TR/2001/REC-SVG-20010904/DTD/svg10.dtd">

<svg xmlns="http://www.w3.org/2000/svg"
     width="5.68889in" height="5.68889in"
     viewBox="0 0 512 512">
  <path id="Selection"
        fill="white" stroke="white" stroke-width="1"
        d="M 233.00,0.21
           C 233.00,0.21 271.00,0.21 271.00,0.21
             298.00,0.04 334.24,10.04 359.00,20.72
             386.09,32.40 413.13,50.14 434.00,71.00
             434.00,71.00 447.83,85.00 447.83,85.00
             468.70,108.11 486.23,137.76 496.95,167.00
             504.46,187.49 511.97,219.25 512.00,241.00
             512.00,241.00 512.00,273.00 512.00,273.00
             511.81,288.89 506.82,312.58 502.42,328.00
             484.65,390.30 442.05,445.03 386.00,477.58
             356.13,494.92 324.24,505.83 290.00,510.28
             290.00,510.28 271.00,512.00 271.00,512.00
             271.00,512.00 239.00,512.00 239.00,512.00
             219.85,511.77 191.28,505.10 173.00,499.00
             149.08,491.02 126.51,479.23 106.00,464.57
             52.27,426.17 15.13,366.90 3.42,302.00
             -0.51,280.18 -0.25,260.99 0.00,239.00
             0.25,217.99 7.79,186.80 15.05,167.00
             40.79,96.81 96.19,41.76 166.00,15.42
             181.81,9.46 200.26,4.66 217.00,2.28
             217.00,2.28 233.00,0.21 233.00,0.21 Z
           M 352.00,168.57
           C 336.86,169.48 326.99,183.01 317.00,193.00
             317.00,193.00 272.01,238.00 272.01,238.00
             272.01,238.00 251.00,260.00 251.00,260.00
             251.00,260.00 233.00,278.00 233.00,278.00
             231.31,279.68 227.14,284.24 225.00,284.80
             222.51,285.46 220.67,283.49 219.00,281.96
             219.00,281.96 208.00,271.00 208.00,271.00
             208.00,271.00 198.00,261.00 198.00,261.00
             192.69,255.69 176.22,238.25 171.00,235.41
             163.14,231.14 151.76,232.35 145.02,238.21
             136.73,245.42 134.06,258.42 139.99,268.00
             142.58,272.18 154.79,283.79 159.00,288.00
             159.00,288.00 195.00,324.00 195.00,324.00
             203.20,332.20 211.27,343.43 224.00,343.43
             236.12,343.43 244.10,333.90 252.00,326.00
             252.00,326.00 266.00,312.00 266.00,312.00
             266.00,312.00 335.00,243.00 335.00,243.00
             342.86,235.14 366.45,212.54 371.39,205.00
             381.85,189.03 370.29,169.67 352.00,168.57 Z" />
</svg>
